<?xml version="1.0" standalone="no"?>
<!DOCTYPE svg PUBLIC "-//W3C//DTD SVG 20010904//EN"
 "http://www.w3.org/TR/2001/REC-SVG-20010904/DTD/svg10.dtd">
<svg version="1.0" xmlns="http://www.w3.org/2000/svg"
 width="700.000000pt" height="700.000000pt" viewBox="0 0 700.000000 700.000000"
 preserveAspectRatio="xMidYMid meet">
<metadata>
Created by potrace 1.11, written by Peter Selinger 2001-2013
</metadata>
<g transform="translate(0.000000,700.000000) scale(0.100000,-0.100000)"
fill="#000000" stroke="none">
<path d="M3421 6955 c-40 -25 -74 -45 -75 -45 -3 0 -523 -299 -556 -319 -8 -5
-100 -59 -205 -119 -104 -60 -289 -167 -410 -237 -121 -70 -308 -178 -415
-240 -107 -61 -240 -138 -295 -170 -223 -129 -742 -429 -775 -448 -135 -76
-197 -113 -208 -123 -9 -10 -12 -370 -10 -1760 l3 -1747 240 -139 c132 -77
263 -152 290 -167 65 -37 544 -313 615 -355 30 -18 163 -95 295 -171 132 -76
273 -157 314 -181 40 -24 77 -44 82 -44 5 0 9 -4 9 -10 0 -5 5 -10 11 -10 9 0
144 -76 299 -169 19 -11 51 -29 70 -40 19 -10 193 -110 385 -221 193 -111 365
-211 382 -221 l33 -19 227 132 c126 72 282 162 347 199 66 38 122 69 125 69 2
0 12 6 20 14 9 7 41 27 71 43 30 17 98 55 150 85 52 31 114 66 136 79 56 32
398 230 432 250 15 9 47 27 72 41 41 24 890 514 970 561 19 11 53 30 76 43 22
12 58 33 80 46 21 14 46 27 54 31 8 4 71 40 140 80 l125 74 0 1753 0 1753
-273 158 c-151 88 -278 159 -283 159 -5 0 -9 5 -9 10 0 6 -4 10 -10 10 -5 0
-55 27 -111 60 -55 33 -102 60 -104 60 -2 0 -36 19 -77 43 -40 24 -93 55 -118
69 -25 14 -117 67 -205 118 -174 101 -317 183 -1190 688 -636 367 -645 372
-648 372 -1 0 -35 -21 -76 -45z"/>
</g>
</svg>
